<svg width="435" height="388" viewBox="0 0 435 388" fill="none" xmlns="http://www.w3.org/2000/svg">
<g clip-path="url(#clip0_337_100)">
<path d="M204.878 168.722C202.683 164.129 203.509 159.321 206.722 157.982C209.936 156.644 214.319 159.282 216.514 163.877C217.419 165.701 217.83 167.705 217.713 169.723L226.743 189.295L216.559 193.167L208.738 173.461C207.051 172.194 205.727 170.569 204.878 168.722Z" fill="#FFAFAF"/>
<path d="M267.286 177.032C272.791 181.949 272.446 190.338 266.554 194.835L237.699 216.855C234.55 219.258 229.876 218.409 227.889 215.073C220.306 203.445 218.877 202.807 214.469 190.89L226.898 186.773L233.906 195.084L249.206 177.989C253.83 172.822 262.083 172.386 267.286 177.032Z" fill="#489DDA"/>
<path d="M155.878 147.299V138.635H65.2267V147.299H155.878Z" fill="#DFDFDF"/>
<path d="M385.417 147.299V138.635H294.766V147.299H385.417Z" fill="#DFDFDF"/>
<path d="M115.444 108.708H99.9453C93.9346 108.708 89.062 113.324 89.062 119.016V173.226C89.062 178.919 93.9346 183.534 99.9453 183.534H115.444C121.454 183.534 126.327 178.919 126.327 173.226V119.016C126.327 113.324 121.454 108.708 115.444 108.708Z" fill="#3F3D56"/>
<path d="M359.902 108.708H344.403C338.393 108.708 333.52 113.324 333.52 119.016V173.226C333.52 178.919 338.393 183.534 344.403 183.534H359.902C365.912 183.534 370.785 178.919 370.785 173.226V119.016C370.785 113.324 365.912 108.708 359.902 108.708Z" fill="#3F3D56"/>
<path d="M350.078 165.18H113.387C105.158 165.18 98.1171 159.614 96.645 151.947L87.5934 104.794C83.6569 84.288 91.8133 63.3958 108.884 50.2491L126.732 13.8781C130.869 5.44727 139.885 0 149.701 0H283.03C290.118 0 296.928 2.84014 301.714 7.79246L334.51 41.7314C358.504 57.0454 372.117 83.5311 370.04 110.866L367.051 150.22C366.414 158.609 358.959 165.18 350.078 165.18Z" fill="#DFDFDF"/>
<path d="M309.683 46.9422H130.86C127.755 46.9422 124.889 45.4704 123.194 43.0059C121.5 40.5408 121.238 37.4629 122.494 34.773L131.92 14.5894C133.354 11.5176 136.572 9.49299 140.116 9.43164L292.558 9.60742C295.461 9.5895 298.232 10.8269 299.992 13.0046L316.948 33.0124C319.079 35.6498 319.438 39.1373 317.885 42.1153C316.333 45.0926 313.19 46.9422 309.683 46.9422Z" fill="white"/>
<path d="M336.501 100.238C345.145 100.238 352.152 93.6007 352.152 85.4137C352.152 77.2267 345.145 70.5898 336.501 70.5898C327.857 70.5898 320.85 77.2267 320.85 85.4137C320.85 93.6007 327.857 100.238 336.501 100.238Z" fill="white"/>
<path d="M130.799 100.238C139.443 100.238 146.45 93.6007 146.45 85.4137C146.45 77.2267 139.443 70.5898 130.799 70.5898C122.155 70.5898 115.148 77.2267 115.148 85.4137C115.148 93.6007 122.155 100.238 130.799 100.238Z" fill="white"/>
<path d="M321.223 140.827H150.549V140.474C150.549 132.105 157.738 125.297 166.573 125.297H305.199C314.034 125.297 321.223 132.105 321.223 140.474V140.827Z" fill="#3F3D56"/>
<path d="M111.392 53.358C110.468 53.358 109.543 53.0795 108.766 52.5169L102.517 47.992C101.897 47.5426 101.125 47.2951 100.343 47.2951H86.6964C85.135 47.2951 83.7357 46.5313 82.9535 45.2511C82.1713 43.9717 82.1684 42.442 82.9457 41.1598L86.2771 35.6629C86.9426 34.5648 88.1309 33.8092 89.4563 33.6417L106.53 31.4854C108.658 31.2179 110.639 32.436 111.248 34.3828L115.539 48.0996C116.012 49.6099 115.516 51.2644 114.277 52.3156C113.46 53.0078 112.427 53.358 111.392 53.358Z" fill="#DFDFDF"/>
<path d="M332.804 50.5345C331.768 50.5345 330.736 50.1843 329.919 49.4922C328.679 48.4409 328.184 46.7865 328.656 45.2761L332.947 31.5593C333.556 29.6112 335.541 28.389 337.666 28.6627L354.74 30.8183C356.065 30.9858 357.253 31.7413 357.919 32.8395L361.25 38.3364C362.027 39.6186 362.024 41.1483 361.242 42.4277C360.46 43.7078 359.061 44.4716 357.499 44.4716H343.853C343.071 44.4716 342.299 44.7191 341.679 45.1686L335.43 49.6935C334.653 50.256 333.727 50.5345 332.804 50.5345Z" fill="#DFDFDF"/>
<path d="M74.3749 26.7817H65.2266V382.034H74.3749V26.7817Z" fill="#DFDFDF"/>
<path d="M390.407 26.7817H381.259V382.034H390.407V26.7817Z" fill="#DFDFDF"/>
<path d="M0 382.379C0 382.65 0.228965 382.866 0.514093 382.866H434.486C434.771 382.866 435 382.65 435 382.379C435 382.109 434.771 381.893 434.486 381.893H0.514093C0.228965 381.893 0 382.109 0 382.379Z" fill="#3F3D56"/>
<path d="M286.542 355.507V371.598L299.387 371.99L298.852 355.507H286.542Z" fill="#FFAFAF"/>
<path d="M283.999 364.46C283.826 364.46 283.656 364.482 283.491 364.526C281.173 365.153 267.753 376.501 263.696 379.964C263.194 380.391 262.928 381.002 262.965 381.64C263.001 382.274 263.335 382.851 263.879 383.222C266.956 385.321 273.261 388.642 280.91 387.3C284.428 386.683 287.979 386.295 291.112 385.952C297.819 385.219 303.117 384.64 303.117 382.391C303.117 378.576 302.009 368.52 300.618 368.097C300.492 368.061 300.346 368.153 300.177 368.376C298.05 371.197 290.743 369.696 290.433 369.631L290.352 369.614L290.306 369.548C290.268 369.494 286.69 364.46 283.999 364.46Z" fill="#2F2E41"/>
<path d="M262.508 355.507V371.598L275.353 371.99L274.818 355.507H262.508Z" fill="#FFAFAF"/>
<path d="M257.328 240.317L250.491 245.223L249.248 300.561L260.85 361.001L275.975 361.59L276.389 303.897L295.865 251.307L291.928 238.944L257.328 240.317Z" fill="#2F2E41"/>
<path d="M289.235 249.737L295.865 251.307L300.63 361.001L283.434 359.628L272.038 282.115L289.235 249.737Z" fill="#2F2E41"/>
<path d="M253.337 388C247.442 388 242.652 385.532 240.094 383.868C239.322 383.366 238.843 382.568 238.782 381.679C238.72 380.782 239.089 379.923 239.795 379.322C246.143 373.913 257.126 364.749 259.343 364.149C262.216 363.369 266.073 368.574 266.569 369.264C267.372 369.419 273.95 370.61 275.806 368.148C276.16 367.679 276.492 367.658 276.711 367.724C278.694 368.326 279.497 380.42 279.497 382.391C279.497 384.989 274.308 385.557 267.126 386.342C264 386.684 260.456 387.071 256.951 387.686C255.709 387.904 254.501 388 253.337 388Z" fill="#2F2E41"/>
<path d="M271.535 168.642L276.255 177.647L258.417 185.807L258.635 171.37L271.535 168.642Z" fill="#FFAFAF"/>
<path d="M258.48 175.454C267.345 175.454 274.532 168.648 274.532 160.252C274.532 151.855 267.345 145.049 258.48 145.049C249.616 145.049 242.429 151.855 242.429 160.252C242.429 168.648 249.616 175.454 258.48 175.454Z" fill="#FFAFAF"/>
<path d="M258.372 182.296L274.83 173.085C286.901 181.103 296.954 182.979 297.273 196.94L295.049 230.242L295.179 244.584C295.234 250.605 290.096 255.514 283.739 255.514H260.237C254.017 255.514 249.384 250.079 250.693 244.321L255.13 224.81L250.392 186.784L258.372 182.296Z" fill="#489DDA"/>
<path d="M274.987 167.901L272.019 169.914C272.019 169.914 271.146 161.138 269.941 160.748C268.736 160.359 267.11 162.382 267.11 162.382L265.923 165.677L261.997 164.127C261.997 164.127 257.452 161.808 255.845 161.289C254.239 160.769 254.482 156.36 254.482 156.36C254.482 156.36 235.196 158.861 238.094 148.331C238.094 148.331 239.092 140.584 241.227 142.124C243.363 143.663 243.392 139.85 243.392 139.85L248.231 138.866C248.231 138.866 254.87 130.395 267.968 137.601C281.066 144.808 274.987 167.901 274.987 167.901Z" fill="#2F2E41"/>
<path d="M241.488 201.552L237.152 200.926C235.942 200.752 235.102 199.67 235.286 198.524L235.816 195.229C234.242 196.15 233.087 197.692 232.787 199.56C232.323 202.442 234.042 205.156 236.771 206.213L232.977 229.801C232.967 229.86 232.969 229.918 232.967 229.976C230.022 230.208 227.518 232.317 227.053 235.206C226.781 236.899 227.261 238.536 228.256 239.813L228.733 236.845C228.918 235.699 230.059 234.903 231.27 235.078L235.606 235.704C236.817 235.878 237.657 236.96 237.472 238.106L236.943 241.401C238.516 240.48 239.671 238.938 239.972 237.07C240.436 234.182 238.709 231.462 235.97 230.41C235.987 230.353 236.007 230.299 236.016 230.239L239.81 206.652C242.747 206.412 245.242 204.306 245.705 201.424C245.978 199.731 245.498 198.094 244.503 196.817L244.025 199.785C243.841 200.931 242.699 201.727 241.488 201.552Z" fill="#3F3D56"/>
<path d="M233.412 222.075C228.208 221.014 224.619 217.525 225.395 214.282C226.171 211.04 231.017 209.272 236.223 210.334C238.309 210.73 240.254 211.61 241.897 212.899L263.879 217.668L261.106 227.725L239.73 221.956C237.652 222.487 235.485 222.528 233.412 222.075Z" fill="#FFAFAF"/>
<path d="M277.591 179.508C285.039 178.242 291.953 183.495 292.264 190.656L293.786 225.723C293.952 229.55 290.451 232.603 286.437 232.131C272.058 230.987 273.069 232.381 260.333 228.647L261.186 215.829L273.053 215.659L267.647 193.841C266.013 187.247 270.553 180.704 277.591 179.508Z" fill="#489DDA"/>
</g>
<defs>
<clipPath id="clip0_337_100">
<rect width="435" height="388" fill="white"/>
</clipPath>
</defs>
</svg>
