<svg width="431" height="384" viewBox="0 0 431 384" fill="none" xmlns="http://www.w3.org/2000/svg">
<g clip-path="url(#clip0_333_55)">
<path d="M274.898 86.0791H251.966V264.84C251.966 267.645 251.362 270.422 250.188 273.014C249.014 275.605 247.293 277.959 245.124 279.942C242.955 281.926 240.38 283.499 237.546 284.572C234.712 285.645 231.675 286.198 228.607 286.198H53.2788V286.402C53.2788 289.207 53.883 291.984 55.0569 294.575C56.2308 297.167 57.9514 299.521 60.1204 301.504C62.2895 303.488 64.8646 305.061 67.6986 306.134C70.5327 307.207 73.5702 307.76 76.6377 307.76H274.898C277.966 307.76 281.003 307.207 283.838 306.134C286.672 305.061 289.247 303.488 291.416 301.504C293.585 299.521 295.305 297.167 296.479 294.575C297.653 291.984 298.257 289.207 298.257 286.402V107.437C298.257 101.772 295.796 96.3399 291.416 92.3346C287.035 88.3293 281.094 86.0791 274.898 86.0791Z" fill="#F2F2F2"/>
<path d="M383.609 370.158C384.015 370.175 384.417 370.078 384.76 369.879C385.104 369.68 385.372 369.39 385.529 369.047C385.686 368.704 385.723 368.325 385.637 367.962C385.55 367.599 385.344 367.269 385.046 367.017L384.91 366.523C384.928 366.484 384.946 366.444 384.964 366.405C385.373 365.521 386.058 364.768 386.934 364.24C387.809 363.712 388.836 363.432 389.885 363.435C390.934 363.439 391.959 363.726 392.83 364.26C393.701 364.794 394.38 365.552 394.782 366.438C396.388 369.974 398.433 373.517 398.936 377.256C399.158 378.909 399.064 380.584 398.66 382.207C402.431 374.685 404.39 366.509 404.403 358.233C404.403 356.157 404.277 354.082 404.025 352.018C403.816 350.326 403.526 348.646 403.156 346.978C401.134 337.929 396.794 329.448 390.491 322.23C387.441 320.709 384.973 318.368 383.422 315.525C382.861 314.503 382.463 313.412 382.243 312.286C382.588 312.327 383.541 307.535 383.281 307.241C383.761 306.576 384.619 306.245 385.143 305.596C387.748 302.367 391.337 302.931 393.21 307.319C397.212 309.166 397.251 312.228 394.795 315.174C393.233 317.048 393.018 319.584 391.647 321.591C391.789 321.756 391.935 321.916 392.076 322.081C394.654 325.112 396.901 328.367 398.785 331.799C398.327 327.954 398.874 324.065 400.38 320.451C401.907 317.083 404.769 314.247 407.289 311.335C407.956 310.553 408.861 309.969 409.891 309.657C410.92 309.345 412.028 309.32 413.073 309.583C414.118 309.847 415.055 310.388 415.764 311.138C416.474 311.888 416.924 312.813 417.058 313.797C417.063 313.84 417.068 313.883 417.073 313.926C416.698 314.119 416.332 314.324 415.974 314.541C415.523 314.816 415.174 315.209 414.972 315.669C414.77 316.128 414.725 316.633 414.842 317.117C414.959 317.6 415.234 318.04 415.629 318.379C416.024 318.717 416.522 318.939 417.057 319.014L417.112 319.022C416.979 320.256 416.743 321.478 416.407 322.679C419.64 334.112 412.66 338.276 402.693 338.463C402.473 338.566 402.259 338.669 402.039 338.767C403.931 343.671 405.118 348.779 405.57 353.962C405.826 357.021 405.811 360.093 405.525 363.149L405.542 363.04C406.264 359.642 408.247 356.576 411.155 354.36C415.475 351.115 421.577 349.92 426.238 347.313C426.733 347.022 427.309 346.867 427.897 346.865C428.486 346.864 429.062 347.017 429.559 347.305C430.056 347.594 430.452 348.006 430.701 348.494C430.95 348.981 431.041 349.524 430.964 350.057L430.945 350.171C430.25 350.43 429.574 350.728 428.92 351.064C428.545 351.257 428.179 351.462 427.82 351.678C427.37 351.954 427.021 352.347 426.819 352.806C426.617 353.266 426.572 353.771 426.689 354.254C426.806 354.738 427.08 355.178 427.476 355.516C427.871 355.855 428.369 356.076 428.904 356.152L428.959 356.16C428.999 356.165 429.032 356.17 429.072 356.175C427.885 358.766 426.219 361.152 424.147 363.226C422.125 373.206 413.442 374.153 404.154 371.247H404.149C403.13 375.296 401.653 379.237 399.743 383.007H384.003C383.947 382.847 383.896 382.682 383.846 382.522C385.302 382.606 386.765 382.526 388.201 382.285C387.033 380.975 385.865 379.654 384.697 378.344C384.671 378.32 384.647 378.294 384.624 378.267C384.032 377.596 383.434 376.931 382.841 376.26L382.841 376.26C382.809 374.204 383.068 372.153 383.609 370.158Z" fill="#F2F2F2"/>
<path d="M210.254 61.7627C210.829 62.5587 211.586 63.2311 212.472 63.7333C213.359 64.2356 214.355 64.5557 215.39 64.6716C216.426 64.7875 217.476 64.6963 218.469 64.4045C219.462 64.1126 220.374 63.6269 221.142 62.9811L253.865 76.4795L260.174 69.1218L221.18 53.3495C219.895 52.2489 218.213 51.6175 216.453 51.575C214.693 51.5325 212.977 52.0819 211.63 53.1189C210.283 54.1559 209.399 55.6087 209.146 57.2017C208.892 58.7948 209.287 60.4177 210.254 61.7627Z" fill="#A0616A"/>
<path d="M350.686 70.1792L353.932 86.9945C354.083 87.779 354.053 88.5837 353.844 89.3571C353.636 90.1305 353.252 90.8554 352.719 91.4853C352.185 92.1152 351.514 92.6361 350.747 93.0147C349.981 93.3933 349.136 93.6211 348.267 93.6835L293.121 97.6486L228.298 71.1231L236.04 57.6851L292.312 73.978L350.686 70.1792Z" fill="#489DDA"/>
<path d="M221.62 58.1284H23.3589C10.4581 58.1284 0 67.6905 0 79.4859V258.452C0 270.247 10.4581 279.809 23.3589 279.809H221.62C234.52 279.809 244.979 270.247 244.979 258.452V79.4859C244.979 67.6905 234.52 58.1284 221.62 58.1284Z" fill="#F2F2F2"/>
<path d="M23.3588 62.5205C20.9221 62.5205 18.5093 62.9593 16.2581 63.8119C14.0069 64.6645 11.9614 65.9142 10.2384 67.4895C8.51537 69.0649 7.1486 70.9352 6.21612 72.9935C5.28364 75.0518 4.80371 77.2579 4.80371 79.4858V258.452C4.80371 262.951 6.75861 267.266 10.2384 270.448C13.7181 273.63 18.4377 275.417 23.3588 275.417H149.894C161.75 275.417 173.489 273.282 184.443 269.134C195.396 264.985 205.348 258.905 213.732 251.24C222.115 243.575 228.765 234.475 233.302 224.46C237.839 214.445 240.174 203.711 240.174 192.871V79.4858C240.174 77.2579 239.694 75.0518 238.762 72.9935C237.829 70.9352 236.463 69.0649 234.74 67.4895C233.017 65.9142 230.971 64.6645 228.72 63.8119C226.469 62.9593 224.056 62.5205 221.619 62.5205H23.3588Z" fill="white"/>
<path d="M177.912 116.833H66.6328C65.6117 116.833 64.6324 116.462 63.9104 115.802C63.1883 115.142 62.7827 114.247 62.7827 113.313C62.7827 112.38 63.1883 111.484 63.9104 110.824C64.6324 110.164 65.6117 109.793 66.6328 109.793H177.912C178.933 109.793 179.913 110.164 180.635 110.824C181.357 111.484 181.762 112.38 181.762 113.313C181.762 114.247 181.357 115.142 180.635 115.802C179.913 116.462 178.933 116.833 177.912 116.833Z" fill="#F2F2F2"/>
<path d="M177.912 191.901H66.6328C65.6117 191.901 64.6324 191.53 63.9104 190.87C63.1883 190.21 62.7827 189.314 62.7827 188.381C62.7827 187.447 63.1883 186.552 63.9104 185.891C64.6324 185.231 65.6117 184.86 66.6328 184.86H177.912C178.933 184.86 179.913 185.231 180.635 185.891C181.357 186.552 181.762 187.447 181.762 188.381C181.762 189.314 181.357 190.21 180.635 190.87C179.913 191.53 178.933 191.901 177.912 191.901Z" fill="#F2F2F2"/>
<path d="M223.1 154.392H21.4443C20.4232 154.392 19.4439 154.021 18.7219 153.361C17.9999 152.701 17.5942 151.805 17.5942 150.872C17.5942 149.938 17.9999 149.043 18.7219 148.383C19.4439 147.722 20.4232 147.352 21.4443 147.352H223.1C224.122 147.352 225.101 147.722 225.823 148.383C226.545 149.043 226.951 149.938 226.951 150.872C226.951 151.805 226.545 152.701 225.823 153.361C225.101 154.021 224.122 154.392 223.1 154.392Z" fill="#F2F2F2"/>
<path d="M343.719 144.295L323.63 183.426L400.908 176.269L384.777 138.705L343.719 144.295Z" fill="#A0616A"/>
<path d="M361.685 369.203L354.358 369.147L351.115 342.705L361.928 342.788L361.685 369.203Z" fill="#A0616A"/>
<path d="M338.216 379.856C338.209 380.65 338.548 381.414 339.157 381.981C339.765 382.547 340.595 382.869 341.464 382.877L356.031 382.988L358.581 378.262L359.518 383.012L365.015 383.058L363.627 366.115L361.714 365.998L353.914 365.507L351.398 365.353L351.353 370.146L339.651 377.404C339.213 377.676 338.853 378.041 338.603 378.468C338.353 378.895 338.22 379.371 338.216 379.856Z" fill="#2F2E41"/>
<path d="M280.601 369.234L273.615 367.211L279.012 341.065L289.322 344.05L280.601 369.234Z" fill="#A0616A"/>
<path d="M254.745 373.112C254.483 373.869 254.561 374.69 254.961 375.395C255.361 376.1 256.05 376.631 256.878 376.872L270.767 380.892L274.723 377.059L274.092 381.851L279.332 383.372L283.45 366.803L281.659 366.178L274.361 363.613L272.005 362.79L270.422 367.36L256.905 371.153C256.398 371.296 255.937 371.548 255.561 371.889C255.185 372.23 254.904 372.65 254.745 373.112Z" fill="#2F2E41"/>
<path d="M397.388 165.265L327.124 177.037C327.124 177.037 315.854 184.745 318.869 187.505C321.884 190.266 322.351 189.838 320.37 191.649C318.39 193.46 314.107 195.881 314.065 197.466C314.023 199.05 282.579 270.125 282.579 270.125C282.579 270.125 286.073 268.528 283.453 270.923C280.833 273.319 280.833 275.299 280.833 275.299L268.605 350.782L288.463 351.851L307.909 283.034L351.282 218.745C351.282 218.745 355.586 276.075 355.766 279.888C355.947 283.701 358.567 278.909 355.947 283.701C353.327 288.492 351.58 285.298 353.327 288.492C355.074 291.687 347.034 356.719 347.034 356.719H365.16L404.036 221.925C404.036 221.925 417.868 183.388 397.388 165.265Z" fill="#2F2E41"/>
<path d="M376.689 57.4459L348.544 54.772L341.251 63.4281L332.756 67.565C329.161 69.3156 326.194 71.976 324.209 75.228C322.224 78.4799 321.306 82.1858 321.564 85.9025L331.491 138.704C331.491 138.704 323.106 155.969 328.871 160.266C334.636 164.563 324.413 175.206 336.732 169.849C349.05 164.493 402.238 170.648 402.238 170.648L390.884 141.1L399.366 112.065L400.3 87.7202C400.474 83.1709 398.998 78.6966 396.1 74.9948C393.203 71.293 389.047 68.5717 384.282 67.2549L383.096 66.9272L376.689 57.4459Z" fill="#489DDA"/>
<path d="M415.438 37.7176C415.623 44.9712 412.658 51.9948 408.399 58.1639C407.133 54.5624 404.858 51.2846 402.485 48.16C403.681 54.9195 402.407 61.8509 398.861 67.8816C398.736 67.9634 398.606 68.0393 398.473 68.1092C395.001 70.0186 390.599 70.792 386.844 69.4129C394.604 61.765 395.591 49.0937 389.085 40.5154C387.244 38.0813 384.861 35.9285 383.721 33.1585C381.919 28.7387 383.651 23.8723 384.743 19.2642C385.765 14.9755 385.943 9.87183 382.796 6.72871C383.133 6.28947 383.59 5.93982 384.123 5.71562C384.656 5.49141 385.244 5.4007 385.827 5.45278C387.767 5.70337 389.18 7.24533 390.079 8.83346C390.979 10.4215 391.572 12.1817 392.826 13.5534C395.147 16.1209 399.1 16.7279 402.432 18.081C410.5 21.3669 415.245 29.6463 415.438 37.7176Z" fill="#2F2E41"/>
<path d="M207.57 383.05C207.569 383.175 207.596 383.299 207.648 383.414C207.7 383.53 207.777 383.634 207.873 383.723C207.97 383.811 208.084 383.881 208.211 383.929C208.337 383.976 208.472 384.001 208.609 384H429.838C430.114 384 430.378 383.9 430.573 383.722C430.768 383.544 430.878 383.302 430.878 383.05C430.878 382.798 430.768 382.556 430.573 382.378C430.378 382.2 430.114 382.1 429.838 382.1H208.609C208.472 382.099 208.337 382.124 208.211 382.171C208.084 382.219 207.97 382.289 207.873 382.377C207.777 382.465 207.7 382.57 207.648 382.686C207.596 382.801 207.569 382.925 207.57 383.05Z" fill="#CCCCCC"/>
<path d="M417.18 205.835C421.522 205.835 425.041 202.617 425.041 198.647C425.041 194.678 421.522 191.46 417.18 191.46C412.839 191.46 409.319 194.678 409.319 198.647C409.319 202.617 412.839 205.835 417.18 205.835Z" fill="#489DDA"/>
<path d="M347.523 33.5702C347.984 32.0948 344.806 41.114 346.339 41.2768C353.324 42.0094 362.912 45.8233 367.776 47.6026C367.995 47.5793 368.214 47.5561 368.427 47.527C368.949 47.4746 369.458 47.3991 369.961 47.3119C381.288 45.3523 385.643 29.4433 385.643 29.298C385.643 28.5828 383.766 8.93957 380.809 8.64888C380.032 8.57182 379.251 8.533 378.47 8.53259H371.131C369.612 8.23338 368.073 8.0294 366.524 7.92206H366.511C351.737 6.89286 340.088 15.1263 341.177 25.1449C341.183 25.1565 341.196 25.1682 341.202 25.1798C341.518 25.6101 341.795 26.0171 342.04 26.4067C342.279 26.773 342.478 27.1219 342.652 27.4533C343.999 30.0117 340.537 33.2311 342.833 33.8319C345.885 34.6311 334.804 60.899 346.887 60.899C341.009 62.4268 346.251 37.6405 347.523 33.5702Z" fill="#2F2E41"/>
<path d="M360.711 48.983C370.308 48.983 378.087 41.8703 378.087 33.0962C378.087 24.3222 370.308 17.2095 360.711 17.2095C351.115 17.2095 343.336 24.3222 343.336 33.0962C343.336 41.8703 351.115 48.983 360.711 48.983Z" fill="#A0616A"/>
<path d="M341.177 26.0111C341.467 26.1506 341.75 26.2785 342.04 26.4065C342.343 26.5402 342.646 26.6739 342.949 26.796C348.767 29.2091 353.503 29.4766 356.376 26.0111C356.453 24.1876 356.901 22.3932 357.697 20.7198C357.556 22.5899 358.096 24.45 359.231 26.0111H365.017C370.976 29.6277 374.037 30.0057 369.9 41.8791C368.747 45.1876 364.161 64.4398 365.965 67.2948C366.487 67.2425 372.04 46.1554 372.542 46.0682C383.869 44.1087 391.066 27.0461 390.145 26.0809C390.149 23.336 389.459 20.6275 388.128 18.1672C386.444 15.0501 383.819 12.4392 380.564 10.6431C378.623 9.78276 376.6 9.08787 374.52 8.56725C374.469 8.55561 374.424 8.54397 374.372 8.53236C373.734 8.37535 373.083 8.22999 372.433 8.10788C371.088 7.84833 369.729 7.66002 368.36 7.54388C368.264 7.53805 368.167 7.53223 368.077 7.53223C367.531 7.5334 366.995 7.6679 366.524 7.92183C366.518 7.92183 366.518 7.92762 366.511 7.92762C366.175 8.10723 365.882 8.34643 365.648 8.63118C365.236 9.11029 365.014 9.70242 365.016 10.3116H358.573C358.335 10.3116 358.097 10.3174 357.858 10.329C353.558 10.4634 349.467 12.0602 346.387 14.8068C343.306 17.5535 341.457 21.2524 341.203 25.1796C341.183 25.4587 341.177 25.732 341.177 26.0111Z" fill="#2F2E41"/>
<path d="M379.167 20.9326C385.489 20.9326 390.614 16.2467 390.614 10.4663C390.614 4.68592 385.489 0 379.167 0C372.845 0 367.72 4.68592 367.72 10.4663C367.72 16.2467 372.845 20.9326 379.167 20.9326Z" fill="#2F2E41"/>
<path d="M417.268 201.611C417.827 200.806 418.188 199.899 418.325 198.953C418.463 198.008 418.374 197.046 418.066 196.135C417.757 195.224 417.236 194.385 416.537 193.677C415.839 192.968 414.981 192.407 414.022 192.031L414.079 159.208L404.153 156.961L404.398 195.946C403.826 197.469 403.886 199.131 404.564 200.616C405.243 202.101 406.495 203.307 408.081 204.006C409.668 204.704 411.479 204.846 413.172 204.405C414.866 203.963 416.323 202.969 417.268 201.611Z" fill="#A0616A"/>
<path d="M368.116 81.0384L383.562 71.4407C384.282 70.9929 385.097 70.6879 385.954 70.5451C386.812 70.4024 387.692 70.4251 388.539 70.6118C389.386 70.7985 390.181 71.1451 390.873 71.6293C391.564 72.1135 392.138 72.7246 392.556 73.4234L419.111 117.792L419.213 182.726L402.634 181.775L395.828 128.167L368.116 81.0384Z" fill="#489DDA"/>
<path d="M249.489 228.299H84.4126C80.822 228.299 77.3786 229.603 74.8397 231.924C72.3008 234.246 70.8745 237.394 70.8745 240.677C70.8745 243.96 72.3008 247.108 74.8397 249.43C77.3786 251.751 80.822 253.055 84.4126 253.055H249.489C253.08 253.055 256.523 251.751 259.062 249.43C261.601 247.108 263.027 243.96 263.027 240.677C263.027 237.394 261.601 234.246 259.062 231.924C256.523 229.603 253.08 228.299 249.489 228.299Z" fill="white"/>
<path d="M249.489 253.853H84.4124C80.5903 253.853 76.9247 252.465 74.222 249.994C71.5193 247.523 70.001 244.171 70.001 240.677C70.001 237.182 71.5193 233.83 74.222 231.359C76.9247 228.888 80.5903 227.5 84.4124 227.5H249.489C253.311 227.5 256.977 228.888 259.68 231.359C262.382 233.83 263.901 237.182 263.901 240.677C263.901 244.171 262.382 247.523 259.68 249.994C256.977 252.465 253.311 253.853 249.489 253.853ZM84.4124 229.097C81.0536 229.097 77.8323 230.317 75.4572 232.489C73.0821 234.66 71.7478 237.606 71.7478 240.677C71.7478 243.748 73.0821 246.693 75.4572 248.865C77.8323 251.036 81.0536 252.256 84.4124 252.256H249.489C252.848 252.256 256.069 251.036 258.445 248.865C260.82 246.693 262.154 243.748 262.154 240.677C262.154 237.606 260.82 234.66 258.445 232.489C256.069 230.317 252.848 229.097 249.489 229.097H84.4124Z" fill="#489DDA"/>
<path d="M259.223 282.317H186.374C185.353 282.317 184.374 281.946 183.652 281.286C182.93 280.626 182.524 279.731 182.524 278.797C182.524 277.863 182.93 276.968 183.652 276.308C184.374 275.648 185.353 275.277 186.374 275.277H259.223C260.244 275.277 261.224 275.648 261.946 276.308C262.668 276.968 263.073 277.863 263.073 278.797C263.073 279.731 262.668 280.626 261.946 281.286C261.224 281.946 260.244 282.317 259.223 282.317Z" fill="#489DDA"/>
</g>
<defs>
<clipPath id="clip0_333_55">
<rect width="431" height="384" fill="white"/>
</clipPath>
</defs>
</svg>
