<svg width="296" height="187" viewBox="0 0 296 187" fill="none" xmlns="http://www.w3.org/2000/svg">
<g clip-path="url(#clip0_371_56)">
<g clip-path="url(#clip1_371_56)">
<g clip-path="url(#clip2_371_56)">
<g clip-path="url(#clip3_371_56)">
<g clip-path="url(#clip4_371_56)">
<g clip-path="url(#clip5_371_56)">
<g clip-path="url(#clip6_371_56)">
<g clip-path="url(#clip7_371_56)">
<g clip-path="url(#clip8_371_56)">
<path d="M44.0311 103.187C41.9558 103.187 40.0652 102.93 38.3595 102.417C36.6537 101.909 35.2181 101.236 34.0525 100.398L36.0994 97.2548C37.1228 98.0405 38.2742 98.6821 39.5535 99.1798C40.8328 99.6774 42.3253 99.9262 44.0311 99.9262C46.078 99.9262 47.6984 99.5333 48.8925 98.7476C50.0865 97.9619 50.6835 96.9012 50.6835 95.5656C50.6835 94.806 50.5129 94.1304 50.1718 93.5385C49.8306 92.9518 49.1682 92.3756 48.1846 91.8099C47.2066 91.2495 45.7653 90.6419 43.8605 89.9871C41.8136 89.2538 40.179 88.5126 38.9565 87.7636C37.7341 87.0198 36.8584 86.1686 36.3297 85.2101C35.8066 84.2568 35.545 83.1254 35.545 81.8159C35.545 80.5064 35.9373 79.32 36.722 78.2567C37.5009 77.1986 38.6523 76.3474 40.1761 75.7032C41.6942 75.0641 43.5336 74.7446 45.6942 74.7446C47.4568 74.7446 49.0431 74.907 50.4532 75.2318C51.8576 75.5618 53.2279 76.0279 54.5641 76.6303L53.0715 79.8124C52.1049 79.2886 50.9763 78.8486 49.6856 78.4924C48.3893 78.1415 47.0304 77.966 45.6089 77.966C43.7326 77.966 42.2543 78.3064 41.174 78.9874C40.0937 79.6683 39.5535 80.5457 39.5535 81.6195C39.5535 82.3004 39.7099 82.9028 40.0226 83.4266C40.3353 83.9504 40.9551 84.4611 41.8819 84.9587C42.803 85.4563 44.1875 86.0194 46.0353 86.6479C48.2528 87.4074 50.0097 88.2062 51.3061 89.0443C52.5968 89.8824 53.5122 90.7911 54.0523 91.7706C54.5925 92.7554 54.8626 93.8763 54.8626 95.1334C54.8626 96.8358 54.402 98.2893 53.4809 99.494C52.5541 100.699 51.2748 101.615 49.643 102.244C48.0055 102.873 46.1348 103.187 44.0311 103.187ZM64.2442 102.715H60.4062V82.2873H64.1162V85.7051C64.9122 84.6051 65.9215 83.6806 67.1439 82.9316C68.3664 82.1878 69.7594 81.8159 71.323 81.8159C73.0856 81.8159 74.527 82.2087 75.6471 82.9944C76.7728 83.7801 77.5632 84.8277 78.018 86.1372C78.8993 84.9325 79.9427 83.9111 81.1481 83.073C82.3592 82.2349 83.8602 81.8159 85.6512 81.8159C88.0677 81.8159 89.8644 82.5152 91.0414 83.9137C92.224 85.3175 92.8154 87.1455 92.8154 89.3978V102.715H88.9774V89.6728C88.9774 88.2586 88.6221 87.1115 87.9114 86.2315C87.2006 85.3568 86.2198 84.9194 84.9689 84.9194C83.6896 84.9194 82.5013 85.3568 81.4039 86.2315C80.3123 87.1115 79.3542 88.1407 78.5298 89.3193V102.715H74.6918V89.6728C74.6918 88.2586 74.3365 87.1115 73.6258 86.2315C72.915 85.3568 71.9342 84.9194 70.6833 84.9194C69.4325 84.9194 68.2527 85.3437 67.1439 86.1922C66.0352 87.046 65.0686 88.0491 64.2442 89.2014V102.715ZM107.911 103.187C106.063 103.187 104.386 102.755 102.879 101.89C101.373 101.026 100.17 99.8005 99.2716 98.2133C98.3789 96.6315 97.9326 94.7668 97.9326 92.6192C97.9326 90.5764 98.3789 88.7431 99.2716 87.1193C100.17 85.4956 101.407 84.2044 102.982 83.2459C104.562 82.2925 106.376 81.8159 108.423 81.8159C109.702 81.8159 110.859 82.0175 111.894 82.4209C112.935 82.8294 113.839 83.3349 114.606 83.9373V82.2873H118.103V97.7655C118.103 98.7607 118.365 99.4076 118.888 99.7062C119.416 100.01 119.994 100.162 120.619 100.162L119.809 102.912C117.08 102.912 115.431 101.89 114.862 99.8476C114.208 100.686 113.318 101.45 112.193 102.142C111.073 102.838 109.645 103.187 107.911 103.187ZM108.764 100.044C109.844 100.044 110.868 99.8005 111.834 99.3133C112.801 98.8314 113.611 98.2238 114.265 97.4905V86.5301C113.498 86.0325 112.65 85.6317 111.724 85.3279C110.802 85.0294 109.83 84.8801 108.807 84.8801C107.442 84.8801 106.24 85.1996 105.199 85.8386C104.164 86.4829 103.348 87.376 102.751 88.5179C102.154 89.6545 101.856 90.9823 101.856 92.5013C101.856 93.968 102.154 95.2696 102.751 96.4062C103.348 97.5481 104.173 98.4386 105.225 99.0776C106.277 99.7219 107.456 100.044 108.764 100.044ZM129.566 102.715H125.728V82.2873H129.438V86.7265C129.807 85.8622 130.305 85.0556 130.93 84.3065C131.556 83.5627 132.337 82.9604 133.276 82.4994C134.214 82.0437 135.308 81.8159 136.559 81.8159C136.986 81.8159 137.412 81.8342 137.838 81.8709C138.265 81.9128 138.62 81.973 138.905 82.0516L137.753 85.7051C137.213 85.4956 136.573 85.3908 135.834 85.3908C134.782 85.3908 133.782 85.6658 132.832 86.2158C131.877 86.7658 131.095 87.6169 130.487 88.7693C129.873 89.9216 129.566 91.3883 129.566 93.1692V102.715ZM151.356 103.187C149.224 103.187 147.541 102.537 146.307 101.238C145.068 99.9445 144.448 98.0929 144.448 95.6834V86.0979H140.61V83.0337H144.534L145.344 76.591H148.286V83.0337H154.427V86.0979H148.286V95.9584C148.286 97.4774 148.636 98.5381 149.335 99.1405C150.029 99.7428 150.859 100.044 151.826 100.044C152.536 100.044 153.213 99.9393 153.855 99.7297C154.492 99.5202 155.081 99.2714 155.621 98.9833L156.687 101.812C156.118 102.126 155.351 102.435 154.384 102.739C153.418 103.038 152.408 103.187 151.356 103.187ZM173.318 103.187C171.1 103.187 169.125 102.812 167.39 102.063C165.656 101.319 164.184 100.298 162.973 98.999C161.767 97.7053 160.843 96.1941 160.201 94.4656C159.564 92.7371 159.246 90.8907 159.246 88.9264C159.246 86.2289 159.806 83.8116 160.926 81.6745C162.052 79.5426 163.666 77.8534 165.77 76.6067C167.874 75.3653 170.39 74.7446 173.318 74.7446C175.507 74.7446 177.474 75.1113 179.22 75.8446C180.971 76.5779 182.458 77.5993 183.68 78.9088C184.903 80.2183 185.832 81.7242 186.469 83.4266C187.112 85.1289 187.433 86.9622 187.433 88.9264C187.433 90.8907 187.112 92.7371 186.469 94.4656C185.832 96.1941 184.903 97.7053 183.68 98.999C182.458 100.298 180.98 101.319 179.245 102.063C177.511 102.812 175.535 103.187 173.318 103.187ZM173.318 99.9654C175.507 99.9654 177.341 99.4809 178.819 98.5119C180.297 97.5429 181.412 96.2255 182.162 94.5599C182.918 92.8994 183.297 91.0216 183.297 88.9264C183.297 87.5122 183.069 86.1503 182.614 84.8408C182.159 83.5313 181.506 82.358 180.653 81.3209C179.8 80.289 178.754 79.4719 177.514 78.8695C176.28 78.2672 174.882 77.966 173.318 77.966C171.243 77.966 169.457 78.4505 167.962 79.4195C166.472 80.3885 165.335 81.698 164.55 83.348C163.771 84.998 163.382 86.8574 163.382 88.9264C163.382 90.3407 163.601 91.7078 164.039 93.0278C164.482 94.353 165.13 95.5394 165.983 96.587C166.836 97.6346 167.879 98.4595 169.113 99.0619C170.353 99.6643 171.754 99.9654 173.318 99.9654ZM197.625 111.358H193.787V87.5122C193.787 86.6217 193.551 85.9853 193.079 85.6029C192.613 85.2258 192.01 85.0372 191.271 85.0372L192.081 82.2873C194.697 82.2873 196.331 83.2432 196.985 85.1551C197.269 84.7622 197.73 84.3039 198.367 83.7801C199.009 83.2563 199.805 82.798 200.755 82.4052C201.71 82.0123 202.799 81.8159 204.021 81.8159C205.727 81.8159 207.325 82.2271 208.814 83.0494C210.31 83.877 211.512 85.0687 212.422 86.6243C213.332 88.1853 213.787 90.0788 213.787 92.3049C213.787 94.4787 213.332 96.3827 212.422 98.0169C211.512 99.6564 210.324 100.927 208.857 101.828C207.396 102.734 205.812 103.187 204.107 103.187C202.799 103.187 201.576 102.943 200.439 102.456C199.302 101.974 198.364 101.419 197.625 100.79V111.358ZM203.339 100.044C205.272 100.044 206.842 99.3421 208.047 97.9384C209.258 96.5398 209.864 94.7013 209.864 92.4228C209.864 90.8514 209.556 89.5026 208.942 88.3764C208.334 87.2503 207.524 86.386 206.512 85.7836C205.505 85.1813 204.391 84.8801 203.168 84.8801C201.946 84.8801 200.843 85.1603 199.859 85.7208C198.881 86.2865 198.137 86.8967 197.625 87.5515V97.6084C198.364 98.3155 199.217 98.8969 200.183 99.3526C201.15 99.8135 202.202 100.044 203.339 100.044ZM225.079 103.187C223.401 103.187 221.889 102.99 220.541 102.598C219.188 102.205 218.071 101.694 217.19 101.065L218.81 98.1191C219.549 98.6952 220.482 99.1719 221.608 99.549C222.728 99.9314 223.927 100.123 225.207 100.123C226.799 100.123 228.001 99.879 228.814 99.3919C229.622 98.91 230.025 98.2893 230.025 97.5298C230.025 96.9798 229.878 96.4953 229.582 96.0763C229.281 95.6572 228.732 95.2434 227.936 94.8349C227.14 94.4315 225.988 93.9942 224.482 93.5227C222.406 92.868 220.851 92.0875 219.817 91.1814C218.776 90.2804 218.256 89.0312 218.256 87.4336C218.256 85.8622 219.003 84.5318 220.499 83.4423C221.989 82.358 224.055 81.8159 226.699 81.8159C228.121 81.8159 229.386 81.9521 230.494 82.2244C231.603 82.5021 232.598 82.8504 233.48 83.2694L232.413 86.1765C231.646 85.7575 230.773 85.417 229.795 85.1551C228.811 84.8932 227.723 84.7622 226.529 84.7622C225.05 84.7622 223.927 85.0372 223.16 85.5872C222.392 86.1372 222.008 86.7396 222.008 87.3943C222.008 88.0229 222.307 88.5598 222.904 89.005C223.501 89.4502 224.667 89.9347 226.401 90.4585C229.215 91.3228 231.177 92.2787 232.286 93.3263C233.394 94.3739 233.949 95.6834 233.949 97.2548C233.949 99.0881 233.147 100.534 231.544 101.592C229.934 102.655 227.78 103.187 225.079 103.187Z" fill="#489DDA"/>
</g>
</g>
</g>
</g>
</g>
</g>
</g>
<path d="M173.304 -0.0751953C229.133 -0.0751953 274.392 41.6193 274.392 93.0513C274.392 144.483 229.133 186.178 173.304 186.178C125.946 186.178 86.193 156.177 75.2196 115.68H77.068C87.9996 155.255 126.941 184.527 173.304 184.527C228.143 184.527 272.6 143.572 272.6 93.0513C272.6 42.5309 228.143 1.57562 173.304 1.57562C126.941 1.57562 88.0005 30.8464 77.068 70.4229H75.2196C86.193 29.9257 125.945 -0.0751953 173.304 -0.0751953Z" fill="#489DDA"/>
</g>
</g>
<defs>
<clipPath id="clip0_371_56">
<rect width="323.484" height="186.253" fill="white" transform="translate(-27.7421 -0.0751953)"/>
</clipPath>
<clipPath id="clip1_371_56">
<rect width="323.484" height="186.253" fill="white" transform="translate(-27.7421 -0.0751953)"/>
</clipPath>
<clipPath id="clip2_371_56">
<rect width="199.913" height="36.6134" fill="white" transform="translate(34.0433 74.7446)"/>
</clipPath>
<clipPath id="clip3_371_56">
<rect width="199.913" height="36.6134" fill="white" transform="translate(34.0433 74.7446)"/>
</clipPath>
<clipPath id="clip4_371_56">
<rect width="199.913" height="36.6134" fill="white" transform="translate(34.0433 74.7446)"/>
</clipPath>
<clipPath id="clip5_371_56">
<rect width="199.913" height="36.6134" fill="white" transform="translate(34.0433 74.7446)"/>
</clipPath>
<clipPath id="clip6_371_56">
<rect width="199.913" height="36.6134" fill="white" transform="translate(34.0433 74.7446)"/>
</clipPath>
<clipPath id="clip7_371_56">
<rect width="199.913" height="36.6134" fill="white" transform="translate(34.0433 74.7446)"/>
</clipPath>
<clipPath id="clip8_371_56">
<rect width="199.913" height="36.6134" fill="white" transform="translate(34.0433 74.7446)"/>
</clipPath>
</defs>
</svg>
