<svg width="324" height="187" viewBox="0 0 324 187" fill="none" xmlns="http://www.w3.org/2000/svg">
<g clip-path="url(#clip0_344_1529)">
<g clip-path="url(#clip1_344_1529)">
<g clip-path="url(#clip2_344_1529)">
<g clip-path="url(#clip3_344_1529)">
<g clip-path="url(#clip4_344_1529)">
<g clip-path="url(#clip5_344_1529)">
<g clip-path="url(#clip6_344_1529)">
<g clip-path="url(#clip7_344_1529)">
<g clip-path="url(#clip8_344_1529)">
<g clip-path="url(#clip9_344_1529)">
<path d="M72.0312 104.092C69.9559 104.092 68.0653 103.835 66.3596 103.322C64.6538 102.814 63.2182 102.14 62.0526 101.302L64.0995 98.1596C65.1229 98.9453 66.2743 99.5869 67.5536 100.085C68.8329 100.582 70.3254 100.831 72.0312 100.831C74.0781 100.831 75.6985 100.438 76.8926 99.6524C78.0866 98.8667 78.6836 97.806 78.6836 96.4703C78.6836 95.7108 78.513 95.0351 78.1719 94.4432C77.8307 93.8566 77.1683 93.2804 76.1847 92.7147C75.2067 92.1543 73.7654 91.5466 71.8606 90.8919C69.8137 90.1586 68.179 89.4174 66.9566 88.6684C65.7341 87.9246 64.8585 87.0734 64.3298 86.1149C63.8067 85.1616 63.5451 84.0302 63.5451 82.7207C63.5451 81.4112 63.9374 80.2248 64.7221 79.1615C65.501 78.1034 66.6524 77.2522 68.1762 76.608C69.6943 75.9689 71.5337 75.6494 73.6943 75.6494C75.4569 75.6494 77.0432 75.8118 78.4533 76.1365C79.8577 76.4665 81.228 76.9327 82.5642 77.5351L81.0716 80.7171C80.105 80.1934 78.9764 79.7534 77.6857 79.3972C76.3894 79.0462 75.0304 78.8708 73.609 78.8708C71.7327 78.8708 70.2544 79.2112 69.1741 79.8922C68.0938 80.5731 67.5536 81.4505 67.5536 82.5242C67.5536 83.2052 67.71 83.8076 68.0227 84.3313C68.3354 84.8551 68.9552 85.3658 69.8819 85.8635C70.803 86.3611 72.1875 86.9241 74.0354 87.5527C76.2529 88.3122 78.0098 89.111 79.3062 89.9491C80.5969 90.7871 81.5123 91.6959 82.0524 92.6754C82.5926 93.6602 82.8627 94.7811 82.8627 96.0382C82.8627 97.7405 82.4021 99.1941 81.481 100.399C80.5542 101.604 79.2749 102.52 77.6431 103.149C76.0056 103.777 74.1349 104.092 72.0312 104.092ZM92.2442 103.62H88.4063V83.1921H92.1163V86.6099C92.9123 85.5099 93.9216 84.5854 95.144 83.8364C96.3665 83.0926 97.7595 82.7207 99.3231 82.7207C101.086 82.7207 102.527 83.1135 103.647 83.8992C104.773 84.6849 105.563 85.7325 106.018 87.042C106.899 85.8373 107.943 84.8159 109.148 83.9778C110.359 83.1397 111.86 82.7207 113.651 82.7207C116.068 82.7207 117.865 83.4199 119.041 84.8185C120.224 86.2223 120.815 88.0503 120.815 90.3026V103.62H116.978V90.5776C116.978 89.1634 116.622 88.0163 115.911 87.1363C115.201 86.2615 114.22 85.8242 112.969 85.8242C111.69 85.8242 110.501 86.2615 109.404 87.1363C108.312 88.0163 107.354 89.0455 106.53 90.2241V103.62H102.692V90.5776C102.692 89.1634 102.337 88.0163 101.626 87.1363C100.915 86.2615 99.9343 85.8242 98.6834 85.8242C97.4326 85.8242 96.2527 86.2484 95.144 87.097C94.0353 87.9508 93.0687 88.9539 92.2442 90.1062V103.62ZM135.911 104.092C134.063 104.092 132.386 103.659 130.879 102.795C129.373 101.931 128.17 100.705 127.272 99.1181C126.379 97.5363 125.933 95.6715 125.933 93.524C125.933 91.4812 126.379 89.6479 127.272 88.0241C128.17 86.4003 129.407 85.1092 130.982 84.1506C132.562 83.1973 134.376 82.7207 136.423 82.7207C137.702 82.7207 138.859 82.9223 139.894 83.3257C140.935 83.7342 141.839 84.2397 142.606 84.842V83.1921H146.103V98.6703C146.103 99.6655 146.365 100.312 146.888 100.611C147.417 100.915 147.994 101.067 148.619 101.067L147.809 103.817C145.08 103.817 143.431 102.795 142.862 100.752C142.208 101.59 141.319 102.355 140.193 103.047C139.073 103.743 137.645 104.092 135.911 104.092ZM136.764 100.949C137.844 100.949 138.868 100.705 139.835 100.218C140.801 99.7362 141.611 99.1286 142.265 98.3953V87.4348C141.498 86.9372 140.65 86.5365 139.724 86.2327C138.803 85.9342 137.83 85.7849 136.807 85.7849C135.442 85.7849 134.24 86.1044 133.199 86.7434C132.164 87.3877 131.348 88.2808 130.751 89.4227C130.154 90.5593 129.856 91.8871 129.856 93.4061C129.856 94.8728 130.154 96.1744 130.751 97.311C131.348 98.4529 132.173 99.3434 133.225 99.9824C134.277 100.627 135.456 100.949 136.764 100.949ZM157.566 103.62H153.728V83.1921H157.438V87.6313C157.807 86.767 158.305 85.9604 158.93 85.2113C159.556 84.4675 160.338 83.8652 161.276 83.4042C162.214 82.9485 163.308 82.7207 164.559 82.7207C164.986 82.7207 165.412 82.739 165.839 82.7757C166.265 82.8176 166.62 82.8778 166.905 82.9564L165.753 86.6099C165.213 86.4003 164.573 86.2956 163.834 86.2956C162.782 86.2956 161.782 86.5706 160.832 87.1206C159.877 87.6706 159.095 88.5217 158.487 89.6741C157.873 90.8264 157.566 92.2931 157.566 94.074V103.62ZM179.357 104.092C177.224 104.092 175.541 103.442 174.308 102.143C173.068 100.849 172.448 98.9977 172.448 96.5882V87.0027H168.61V83.9385H172.534L173.344 77.4958H176.286V83.9385H182.427V87.0027H176.286V96.8632C176.286 98.3822 176.636 99.4429 177.335 100.045C178.029 100.648 178.859 100.949 179.826 100.949C180.536 100.949 181.213 100.844 181.856 100.635C182.492 100.425 183.081 100.176 183.621 99.8881L184.687 102.717C184.118 103.031 183.351 103.34 182.384 103.644C181.418 103.942 180.408 104.092 179.357 104.092ZM201.318 104.092C199.101 104.092 197.125 103.717 195.391 102.968C193.656 102.224 192.184 101.203 190.973 99.9038C189.767 98.6101 188.843 97.0989 188.201 95.3704C187.564 93.6418 187.246 91.7955 187.246 89.8312C187.246 87.1337 187.806 84.7163 188.926 82.5792C190.052 80.4474 191.666 78.7581 193.77 77.5115C195.874 76.2701 198.39 75.6494 201.318 75.6494C203.507 75.6494 205.474 76.0161 207.22 76.7494C208.971 77.4827 210.458 78.5041 211.68 79.8136C212.903 81.1231 213.833 82.629 214.469 84.3313C215.112 86.0337 215.433 87.867 215.433 89.8312C215.433 91.7955 215.112 93.6418 214.469 95.3704C213.833 97.0989 212.903 98.6101 211.68 99.9038C210.458 101.203 208.98 102.224 207.246 102.968C205.511 103.717 203.536 104.092 201.318 104.092ZM201.318 100.87C203.507 100.87 205.341 100.386 206.819 99.4167C208.297 98.4477 209.412 97.1303 210.162 95.4646C210.919 93.8042 211.297 91.9264 211.297 89.8312C211.297 88.417 211.069 87.0551 210.614 85.7456C210.159 84.4361 209.506 83.2628 208.653 82.2257C207.8 81.1938 206.754 80.3767 205.514 79.7743C204.28 79.1719 202.882 78.8708 201.318 78.8708C199.243 78.8708 197.457 79.3553 195.962 80.3243C194.472 81.2933 193.335 82.6028 192.551 84.2528C191.772 85.9027 191.382 87.7622 191.382 89.8312C191.382 91.2455 191.601 92.6126 192.039 93.9325C192.482 95.2577 193.13 96.4442 193.983 97.4917C194.836 98.5393 195.88 99.3643 197.113 99.9667C198.353 100.569 199.754 100.87 201.318 100.87ZM225.625 112.263H221.787V88.417C221.787 87.5265 221.551 86.8901 221.079 86.5077C220.613 86.1306 220.01 85.942 219.271 85.942L220.081 83.1921C222.697 83.1921 224.331 84.148 224.985 86.0599C225.27 85.667 225.73 85.2087 226.367 84.6849C227.009 84.1611 227.805 83.7028 228.755 83.3099C229.71 82.9171 230.799 82.7207 232.021 82.7207C233.727 82.7207 235.325 83.1319 236.815 83.9542C238.31 84.7818 239.512 85.9735 240.422 87.5291C241.332 89.09 241.787 90.9836 241.787 93.2097C241.787 95.3835 241.332 97.2875 240.422 98.9217C239.512 100.561 238.324 101.831 236.857 102.732C235.396 103.639 233.812 104.092 232.107 104.092C230.799 104.092 229.577 103.848 228.439 103.361C227.302 102.879 226.364 102.324 225.625 101.695V112.263ZM231.339 100.949C233.272 100.949 234.842 100.247 236.047 98.8431C237.258 97.4446 237.864 95.6061 237.864 93.3276C237.864 91.7562 237.557 90.4074 236.943 89.2812C236.334 88.1551 235.524 87.2908 234.512 86.6884C233.505 86.0861 232.391 85.7849 231.169 85.7849C229.946 85.7849 228.843 86.0651 227.859 86.6256C226.881 87.1913 226.137 87.8015 225.625 88.4562V98.5131C226.364 99.2203 227.217 99.8017 228.184 100.257C229.15 100.718 230.202 100.949 231.339 100.949ZM253.079 104.092C251.402 104.092 249.889 103.895 248.542 103.502C247.188 103.109 246.071 102.599 245.19 101.97L246.81 99.0238C247.549 99.6 248.482 100.077 249.608 100.454C250.728 100.836 251.927 101.027 253.207 101.027C254.799 101.027 256.001 100.784 256.814 100.297C257.622 99.8148 258.025 99.1941 258.025 98.4346C258.025 97.8846 257.878 97.4001 257.582 96.981C257.281 96.562 256.732 96.1482 255.936 95.7396C255.14 95.3363 253.989 94.8989 252.482 94.4275C250.407 93.7728 248.851 92.9923 247.817 92.0862C246.776 91.1852 246.256 89.936 246.256 88.3384C246.256 86.767 247.004 85.4366 248.499 84.3471C249.989 83.2628 252.055 82.7207 254.699 82.7207C256.121 82.7207 257.386 82.8569 258.495 83.1292C259.603 83.4068 260.598 83.7552 261.48 84.1742L260.414 87.0813C259.646 86.6622 258.773 86.3218 257.795 86.0599C256.812 85.798 255.723 85.667 254.529 85.667C253.05 85.667 251.927 85.942 251.16 86.492C250.392 87.042 250.009 87.6444 250.009 88.2991C250.009 88.9277 250.307 89.4646 250.904 89.9098C251.501 90.355 252.667 90.8395 254.401 91.3633C257.215 92.2276 259.177 93.1835 260.286 94.2311C261.394 95.2787 261.949 96.5882 261.949 98.1596C261.949 99.9929 261.147 101.439 259.544 102.497C257.935 103.56 255.78 104.092 253.079 104.092Z" fill="#489DDA"/>
</g>
</g>
</g>
</g>
</g>
</g>
</g>
<path d="M201.304 0.82959C257.133 0.82959 302.392 42.524 302.392 93.9561C302.392 145.388 257.133 187.083 201.304 187.083C153.946 187.083 114.193 157.082 103.22 116.584H105.068C116 156.16 154.941 185.432 201.304 185.432C256.143 185.432 300.6 144.477 300.6 93.9561C300.6 43.4357 256.143 2.4804 201.304 2.4804C154.941 2.4804 116 31.7512 105.068 71.3277H103.22C114.193 30.8305 153.945 0.82959 201.304 0.82959Z" fill="#489DDA"/>
</g>
</g>
</g>
<defs>
<clipPath id="clip0_344_1529">
<rect width="324" height="186.102" fill="white" transform="translate(0 0.904785)"/>
</clipPath>
<clipPath id="clip1_344_1529">
<rect width="323.484" height="186.253" fill="white" transform="translate(0.257935 0.82959)"/>
</clipPath>
<clipPath id="clip2_344_1529">
<rect width="323.484" height="186.253" fill="white" transform="translate(0.257935 0.82959)"/>
</clipPath>
<clipPath id="clip3_344_1529">
<rect width="199.913" height="36.6134" fill="white" transform="translate(62.0434 75.6494)"/>
</clipPath>
<clipPath id="clip4_344_1529">
<rect width="199.913" height="36.6134" fill="white" transform="translate(62.0434 75.6494)"/>
</clipPath>
<clipPath id="clip5_344_1529">
<rect width="199.913" height="36.6134" fill="white" transform="translate(62.0434 75.6494)"/>
</clipPath>
<clipPath id="clip6_344_1529">
<rect width="199.913" height="36.6134" fill="white" transform="translate(62.0434 75.6494)"/>
</clipPath>
<clipPath id="clip7_344_1529">
<rect width="199.913" height="36.6134" fill="white" transform="translate(62.0434 75.6494)"/>
</clipPath>
<clipPath id="clip8_344_1529">
<rect width="199.913" height="36.6134" fill="white" transform="translate(62.0434 75.6494)"/>
</clipPath>
<clipPath id="clip9_344_1529">
<rect width="199.913" height="36.6134" fill="white" transform="translate(62.0434 75.6494)"/>
</clipPath>
</defs>
</svg>
