<svg width="329" height="200" viewBox="0 0 329 200" fill="none" xmlns="http://www.w3.org/2000/svg">
<g clip-path="url(#clip0_339_513)">
<g clip-path="url(#clip1_339_513)">
<g clip-path="url(#clip2_339_513)">
<g clip-path="url(#clip3_339_513)">
<g clip-path="url(#clip4_339_513)">
<g clip-path="url(#clip5_339_513)">
<g clip-path="url(#clip6_339_513)">
<g clip-path="url(#clip7_339_513)">
<g clip-path="url(#clip8_339_513)">
<g clip-path="url(#clip9_339_513)">
<path d="M73.1426 110.892C71.0353 110.892 69.1155 110.617 67.3835 110.065C65.6514 109.519 64.1936 108.795 63.01 107.895L65.0885 104.517C66.1277 105.362 67.2969 106.051 68.5959 106.586C69.895 107.121 71.4105 107.388 73.1426 107.388C75.2211 107.388 76.8665 106.966 78.079 106.122C79.2914 105.277 79.8977 104.137 79.8977 102.702C79.8977 101.886 79.7245 101.16 79.378 100.523C79.0316 99.893 78.359 99.2738 77.3602 98.6659C76.3671 98.0636 74.9035 97.4106 72.9694 96.7069C70.8909 95.9189 69.231 95.1223 67.9897 94.3174C66.7484 93.518 65.8593 92.6033 65.3223 91.5732C64.7912 90.5487 64.5256 89.3328 64.5256 87.9255C64.5256 86.5182 64.9239 85.2432 65.7207 84.1005C66.5117 82.9634 67.6808 82.0487 69.2281 81.3563C70.7697 80.6695 72.6374 80.3262 74.8314 80.3262C76.6212 80.3262 78.232 80.5007 79.6638 80.8497C81.0899 81.2043 82.4813 81.7053 83.8381 82.3527L82.3226 85.7724C81.3411 85.2094 80.195 84.7366 78.8844 84.3538C77.568 83.9767 76.1882 83.7881 74.7448 83.7881C72.8395 83.7881 71.3384 84.154 70.2414 84.8858C69.1444 85.6175 68.5959 86.5604 68.5959 87.7144C68.5959 88.4462 68.7547 89.0935 69.0722 89.6565C69.3898 90.2194 70.0191 90.7682 70.9602 91.303C71.8955 91.8377 73.3014 92.4429 75.1778 93.1184C77.4295 93.9346 79.2135 94.793 80.5299 95.6937C81.8405 96.5944 82.77 97.571 83.3185 98.6236C83.867 99.6819 84.1412 100.887 84.1412 102.238C84.1412 104.067 83.6736 105.629 82.7383 106.924C81.7972 108.218 80.4981 109.204 78.8411 109.879C77.1783 110.555 75.2788 110.892 73.1426 110.892ZM93.6676 110.386H89.7704V88.4321H93.5377V92.1051C94.346 90.923 95.3708 89.9295 96.6121 89.1245C97.8534 88.3252 99.2679 87.9255 100.856 87.9255C102.645 87.9255 104.109 88.3477 105.246 89.192C106.39 90.0364 107.192 91.1622 107.654 92.5695C108.549 91.2748 109.608 90.1771 110.832 89.2765C112.062 88.3758 113.586 87.9255 115.405 87.9255C117.859 87.9255 119.683 88.677 120.878 90.18C122.079 91.6886 122.68 93.6531 122.68 96.0737V110.386H118.783V96.3692C118.783 94.8493 118.422 93.6165 117.7 92.6708C116.978 91.7308 115.982 91.2608 114.712 91.2608C113.413 91.2608 112.206 91.7308 111.092 92.6708C109.984 93.6165 109.011 94.7227 108.174 95.9892V110.386H104.277V96.3692C104.277 94.8493 103.916 93.6165 103.194 92.6708C102.472 91.7308 101.476 91.2608 100.206 91.2608C98.936 91.2608 97.738 91.7167 96.6121 92.6286C95.4863 93.5462 94.5048 94.6242 93.6676 95.8626V110.386ZM138.009 110.892C136.132 110.892 134.429 110.428 132.899 109.499C131.369 108.57 130.148 107.253 129.236 105.547C128.329 103.847 127.876 101.844 127.876 99.5356C127.876 97.3402 128.329 95.37 129.236 93.625C130.148 91.88 131.404 90.4924 133.003 89.4622C134.608 88.4377 136.45 87.9255 138.528 87.9255C139.827 87.9255 141.002 88.1422 142.053 88.5757C143.109 89.0147 144.027 89.5579 144.807 90.2053V88.4321H148.358V105.066C148.358 106.136 148.623 106.831 149.154 107.152C149.691 107.478 150.277 107.642 150.912 107.642L150.09 110.597C147.318 110.597 145.644 109.499 145.067 107.304C144.403 108.204 143.499 109.026 142.356 109.769C141.219 110.518 139.769 110.892 138.009 110.892ZM138.875 107.515C139.972 107.515 141.011 107.253 141.992 106.73C142.974 106.212 143.797 105.559 144.46 104.771V92.9917C143.681 92.4569 142.821 92.0263 141.88 91.6998C140.944 91.379 139.957 91.2185 138.918 91.2185C137.532 91.2185 136.311 91.5619 135.255 92.2487C134.204 92.941 133.375 93.9008 132.769 95.128C132.163 96.3495 131.86 97.7765 131.86 99.4089C131.86 100.985 132.163 102.384 132.769 103.605C133.375 104.833 134.212 105.79 135.281 106.476C136.349 107.169 137.547 107.515 138.875 107.515ZM159.997 110.386H156.1V88.4321H159.867V93.2028C160.242 92.274 160.748 91.4071 161.383 90.6021C162.018 89.8028 162.812 89.1555 163.764 88.6601C164.717 88.1704 165.828 87.9255 167.099 87.9255C167.532 87.9255 167.965 87.9452 168.398 87.9846C168.831 88.0296 169.191 88.0944 169.48 88.1788L168.311 92.1051C167.763 91.88 167.113 91.7674 166.362 91.7674C165.294 91.7674 164.278 92.0629 163.314 92.654C162.344 93.245 161.55 94.1598 160.932 95.3982C160.309 96.6366 159.997 98.2127 159.997 100.127V110.386ZM182.124 110.892C179.959 110.892 178.25 110.194 176.997 108.798C175.739 107.408 175.109 105.418 175.109 102.829V92.5273H171.212V89.2343H175.196L176.019 82.3104H179.007V89.2343H185.242V92.5273H179.007V103.124C179.007 104.757 179.362 105.896 180.072 106.544C180.776 107.191 181.619 107.515 182.601 107.515C183.322 107.515 184.009 107.402 184.662 107.177C185.308 106.952 185.906 106.685 186.454 106.375L187.537 109.415C186.96 109.752 186.18 110.085 185.199 110.411C184.217 110.732 183.192 110.892 182.124 110.892ZM204.425 110.892C202.173 110.892 200.167 110.49 198.406 109.685C196.645 108.886 195.149 107.788 193.92 106.392C192.696 105.001 191.757 103.377 191.105 101.52C190.458 99.6622 190.135 97.678 190.135 95.567C190.135 92.668 190.704 90.0702 191.841 87.7735C192.984 85.4825 194.624 83.6671 196.76 82.3273C198.896 80.9932 201.451 80.3262 204.425 80.3262C206.647 80.3262 208.645 80.7202 210.418 81.5083C212.196 82.2964 213.706 83.394 214.947 84.8013C216.188 86.2086 217.132 87.827 217.779 89.6565C218.431 91.4859 218.757 93.4561 218.757 95.567C218.757 97.678 218.431 99.6622 217.779 101.52C217.132 103.377 216.188 105.001 214.947 106.392C213.706 107.788 212.204 108.886 210.444 109.685C208.683 110.49 206.676 110.892 204.425 110.892ZM204.425 107.43C206.647 107.43 208.509 106.91 210.011 105.868C211.512 104.827 212.643 103.411 213.405 101.621C214.173 99.8367 214.557 97.8187 214.557 95.567C214.557 94.0472 214.326 92.5836 213.864 91.1763C213.403 89.769 212.739 88.5081 211.873 87.3935C211.006 86.2846 209.944 85.4065 208.686 84.7591C207.433 84.1118 206.012 83.7881 204.425 83.7881C202.317 83.7881 200.504 84.3088 198.986 85.3502C197.473 86.3916 196.319 87.7988 195.522 89.572C194.731 91.3452 194.335 93.3435 194.335 95.567C194.335 97.0869 194.558 98.5561 195.002 99.9746C195.453 101.399 196.111 102.674 196.977 103.8C197.843 104.925 198.902 105.812 200.155 106.459C201.414 107.107 202.837 107.43 204.425 107.43ZM229.107 119.674H225.209V94.0472C225.209 93.0902 224.97 92.4063 224.491 91.9954C224.017 91.5901 223.405 91.3874 222.655 91.3874L223.477 88.4321C226.133 88.4321 227.793 89.4594 228.457 91.5141C228.746 91.0919 229.213 90.5993 229.86 90.0364C230.512 89.4735 231.321 88.981 232.285 88.5588C233.255 88.1366 234.361 87.9255 235.602 87.9255C237.334 87.9255 238.956 88.3674 240.469 89.2512C241.987 90.1406 243.208 91.4212 244.132 93.093C245.056 94.7705 245.518 96.8054 245.518 99.1978C245.518 101.534 245.056 103.58 244.132 105.336C243.208 107.098 242.002 108.463 240.512 109.432C239.028 110.405 237.421 110.892 235.688 110.892C234.361 110.892 233.119 110.631 231.964 110.107C230.81 109.589 229.857 108.993 229.107 108.317V119.674ZM234.909 107.515C236.872 107.515 238.466 106.761 239.69 105.252C240.919 103.749 241.534 101.773 241.534 99.3245C241.534 97.6357 241.222 96.1862 240.599 94.976C239.981 93.7657 239.158 92.8369 238.131 92.1896C237.109 91.5422 235.977 91.2185 234.736 91.2185C233.494 91.2185 232.374 91.5197 231.376 92.122C230.383 92.73 229.626 93.3857 229.107 94.0894V104.897C229.857 105.657 230.723 106.282 231.705 106.772C232.686 107.267 233.754 107.515 234.909 107.515ZM256.984 110.892C255.281 110.892 253.745 110.681 252.377 110.259C251.003 109.837 249.868 109.288 248.973 108.613L250.619 105.446C251.369 106.065 252.316 106.578 253.459 106.983C254.597 107.394 255.815 107.599 257.114 107.599C258.731 107.599 259.952 107.338 260.777 106.814C261.597 106.296 262.007 105.629 262.007 104.813C262.007 104.222 261.857 103.701 261.557 103.251C261.251 102.8 260.694 102.356 259.885 101.917C259.077 101.483 257.908 101.013 256.378 100.507C254.271 99.803 252.692 98.9642 251.641 97.9904C250.584 97.0222 250.056 95.6796 250.056 93.9627C250.056 92.274 250.815 90.8442 252.334 89.6733C253.846 88.5081 255.945 87.9255 258.63 87.9255C260.073 87.9255 261.358 88.0719 262.484 88.3646C263.609 88.6629 264.62 89.0372 265.515 89.4876L264.432 92.6117C263.653 92.1614 262.766 91.7955 261.773 91.5141C260.775 91.2326 259.669 91.0919 258.456 91.0919C256.955 91.0919 255.815 91.3874 255.036 91.9785C254.256 92.5695 253.866 93.2169 253.866 93.9205C253.866 94.596 254.17 95.173 254.776 95.6515C255.382 96.1299 256.566 96.6506 258.327 97.2136C261.184 98.1424 263.176 99.1697 264.302 100.296C265.428 101.421 265.991 102.829 265.991 104.517C265.991 106.488 265.177 108.041 263.549 109.178C261.915 110.321 259.727 110.892 256.984 110.892Z" fill="white"/>
</g>
</g>
</g>
</g>
</g>
</g>
</g>
<path d="M204.41 -0.0810547C261.101 -0.0810547 307.059 44.727 307.059 99.9999C307.059 155.273 261.101 200.081 204.41 200.081C156.321 200.081 115.955 167.84 104.813 124.318H106.69C117.79 166.849 157.332 198.307 204.41 198.307C260.096 198.307 305.239 154.293 305.239 99.9999C305.239 45.7068 260.096 1.69303 204.41 1.69303C157.332 1.69303 117.791 33.1497 106.69 75.6817H104.813C115.955 32.1602 156.321 -0.0810547 204.41 -0.0810547Z" fill="white"/>
</g>
</g>
</g>
<defs>
<clipPath id="clip0_339_513">
<rect width="329" height="200" fill="white"/>
</clipPath>
<clipPath id="clip1_339_513">
<rect width="328.476" height="200.162" fill="white" transform="translate(0.261963 -0.0810547)"/>
</clipPath>
<clipPath id="clip2_339_513">
<rect width="328.476" height="200.162" fill="white" transform="translate(0.261963 -0.0810547)"/>
</clipPath>
<clipPath id="clip3_339_513">
<rect width="202.998" height="39.3476" fill="white" transform="translate(63.0009 80.3262)"/>
</clipPath>
<clipPath id="clip4_339_513">
<rect width="202.998" height="39.3476" fill="white" transform="translate(63.0009 80.3262)"/>
</clipPath>
<clipPath id="clip5_339_513">
<rect width="202.998" height="39.3476" fill="white" transform="translate(63.0009 80.3262)"/>
</clipPath>
<clipPath id="clip6_339_513">
<rect width="202.998" height="39.3476" fill="white" transform="translate(63.0009 80.3262)"/>
</clipPath>
<clipPath id="clip7_339_513">
<rect width="202.998" height="39.3476" fill="white" transform="translate(63.0009 80.3262)"/>
</clipPath>
<clipPath id="clip8_339_513">
<rect width="202.998" height="39.3476" fill="white" transform="translate(63.0009 80.3262)"/>
</clipPath>
<clipPath id="clip9_339_513">
<rect width="202.998" height="39.3476" fill="white" transform="translate(63.0009 80.3262)"/>
</clipPath>
</defs>
</svg>
